#!OML:ASF G:\ViconDB\ViconDB\414\test\team2\shane.ASF
:FULLY-SPECIFIED
:DEGREES
245
root 0.674767 16.3591 22.0311 -10.4065 -8.71056 -5.07385
lowerback 9.86683 5.90873 6.18994
upperback 2.80877 8.43809 -0.570584
thorax -1.57312 4.23224 -4.89084
lowerneck -18.8047 -6.08024 -3.1822
upperneck 23.4693 -10.1663 9.20647
head 11.4397 -3.75754 2.30814
rclavicle 4.17324e-014 2.70347e-014
rhumerus -10.9135 19.6544 -93.0863
rradius 98.0032
rwrist 30.8498
rhand -42.684 -18.7245
rfingers 7.12502
rthumb -15.554 -48.119
lclavicle 4.17324e-014 2.70347e-014
lhumerus -57.4104 -2.27397 45.1344
lradius 11.4568
lwrist -32.1986
lhand -39.4154 10.7655
lfingers 7.12502
lthumb -12.4041 40.3774
rfemur 36.643 -4.32796 16.8342
rtibia 8.45739
rfoot -12.5082 4.9056
rtoes -24.7106
lfemur -16.1325 14.8565 -8.09996
ltibia 40.0835
lfoot -19.0874 -10.7983
ltoes -7.85268
246
root 0.698095 16.382 22.2646 -10.6755 -8.96961 -4.97847
lowerback 9.83456 5.88955 5.95046
upperback 2.8519 8.38752 -0.507009
thorax -1.56171 4.2073 -4.68576
lowerneck -18.7588 -5.84417 -3.36493
upperneck 23.4809 -9.80586 9.31921
head 11.4246 -3.59908 2.44088
rclavicle 1.41355e-014 1.59028e-015
rhumerus -12.2451 19.5336 -93.3964
rradius 97.1277
rwrist 30.4366
rhand -42.3292 -18.3422
rfingers 7.12502
rthumb -15.2123 -47.7629
lclavicle 1.41355e-014 1.59028e-015
lhumerus -57.2938 -1.34199 45.3592
lradius 11.4013
lwrist -32.7646
lhand -39.5526 10.6037
lfingers 7.12502
lthumb -12.5364 40.2076
rfemur 33.7136 -3.65789 16.7821
rtibia 16.1973
rfoot -12.8284 4.24794
rtoes -25.8337
lfemur -14.8954 15.192 -7.99034
ltibia 39.9179
lfoot -18.5599 -11.6576
ltoes -6.42903
247
root 0.723711 16.417 22.4973 -10.8869 -9.12501 -4.75582
lowerback 9.81568 5.84559 5.56803
upperback 2.88306 8.28949 -0.521601
thorax -1.58386 4.15721 -4.48305
lowerneck -19.0489 -5.76533 -3.26884
upperneck 23.8552 -9.67184 8.99905
head 11.5873 -3.5477 2.3275
rclavicle -1.30608e-014 -1.27222e-014
rhumerus -13.5195 19.4515 -93.6848
rradius 95.8376
rwrist 29.8604
rhand -42.1656 -17.6921
rfingers 7.12502
rthumb -15.0547 -47.1247
lclavicle -1.30608e-014 -1.27222e-014
lhumerus -57.1288 -0.501834 45.8844
lradius 11.5254
lwrist -33.2456
lhand -39.5354 10.7378
lfingers 7.12502
lthumb -12.5199 40.3427
rfemur 31.5115 -3.55395 16.1446
rtibia 22.0261
rfoot -11.2522 4.18855
rtoes -26.0996
lfemur -13.6139 15.6361 -8.18308
ltibia 39.6866
lfoot -18.8442 -12.3332
ltoes -5.54253
248
root 0.762395 16.4642 22.7297 -11.0062 -9.20753 -4.65116
lowerback 9.80342 5.71411 5.61068
upperback 2.8661 8.11792 -0.558588
thorax -1.60293 4.0709 -4.53073
lowerneck -19.0641 -5.67225 -3.753
upperneck 23.8937 -9.51607 9.43023
head 11.6456 -3.46688 2.59418
rclavicle -2.08002e-013 1.51076e-014
rhumerus -14.9566 19.2028 -94.107
rradius 94.4537
rwrist 29.5258
rhand -41.752 -17.1847
rfingers 7.12502
rthumb -14.6562 -46.6468
lclavicle -2.08002e-013 1.51076e-014
lhumerus -57.0543 -0.219273 47.3801
lradius 11.7853
lwrist -32.5732
lhand -39.6763 10.4269
lfingers 7.12502
lthumb -12.6557 40.0235
rfemur 29.3705 -3.66025 15.4892
rtibia 27.2821
rfoot -8.96449 4.03243
rtoes -25.916
lfemur -12.3189 15.4249 -8.30932
ltibia 39.3048
lfoot -19.3018 -11.7685
ltoes -4.97021
249
root 0.800178 16.5075 22.9572 -11.1244 -9.2744 -4.48505
lowerback 9.80913 5.5758 5.44719
upperback 2.85551 7.91927 -0.540256
thorax -1.66544 3.96849 -4.40989
lowerneck -19.3834 -5.4227 -3.56669
upperneck 24.2755 -9.11933 8.96349
head 11.7845 -3.30784 2.45579
rclavicle -7.54139e-014 5.56597e-015
rhumerus -16.3906 19.3119 -94.2604
rradius 92.9122
rwrist 29.134
rhand -41.4748 -16.8011
rfingers 7.12502
rthumb -14.3892 -46.2823
lclavicle -7.54139e-014 5.56597e-015
lhumerus -56.9742 -0.899246 50.2508
lradius 12.2381
lwrist -30.3865
lhand -39.658 10.1999
lfingers 7.12502
lthumb -12.6381 39.7975
rfemur 27.308 -3.92824 14.6777
rtibia 32.1482
rfoot -6.45137 4.24283
rtoes -24.5149
lfemur -11.0364 15.1505 -8.56079
ltibia 38.8041
lfoot -19.8741 -11.2472
ltoes -4.95453
